# xmcd
#
# Track frame offsets: 
#        150
#        12883
#        25578
#        41215
#        59927
#        74249
#        89059
#        105988
#        122548
#        146121
#        162144
#        181517
#
# Disc length: 2685 seconds
#
# Revision: 3
# Processed by: cddbd v1.5.2PL0 Copyright (c) Steve Scherf et al.
# Submitted via: ExactAudioCopyFreeDBPlugin 1.0
#
DISCID=a70a7b0c
DTITLE=Canned Heat - Boogie 2000
DYEAR=1999
DGENRE=Blues
TTITLE0=Wait And See
TTITLE1=Last Man
TTITLE2=World Of Make Believe
TTITLE3=Dark Clouds
TTITLE4=Searchin' For My Baby
TTITLE5=I Got Loaded
TTITLE6=Too Much Giddyup
TTITLE7=She Split
TTITLE8=2000 Reasons (Y2k Blues)
TTITLE9=Road To Rio
TTITLE10=Can I Come Home?
TTITLE11=I'm So Tired
EXTD=
EXTT0=
EXTT1=
EXTT2=
EXTT3=
EXTT4=
EXTT5=
EXTT6=
EXTT7=
EXTT8=
EXTT9=
EXTT10=
EXTT11=
PLAYORDER=
